<?xml version="1.0" standalone="no"?>
<!DOCTYPE svg PUBLIC "-//W3C//DTD SVG 20010904//EN"
 "http://www.w3.org/TR/2001/REC-SVG-20010904/DTD/svg10.dtd">
<svg version="1.0" xmlns="http://www.w3.org/2000/svg"
 width="500.000000pt" height="500.000000pt" viewBox="0 0 500.000000 500.000000"
 preserveAspectRatio="xMidYMid meet">
<metadata>
Created by potrace 1.14, written by Peter Selinger 2001-2017
</metadata>
<g transform="translate(0.000000,500.000000) scale(0.100000,-0.100000)"
fill="#000000" stroke="none">
<path d="M3090 4454 c-41 -8 -79 -16 -85 -18 -5 -1 -27 -6 -48 -11 -20 -4 -40
-11 -43 -16 -3 -5 -12 -9 -21 -9 -31 0 -203 -91 -279 -148 -74 -55 -159 -136
-218 -209 -32 -38 -136 -203 -136 -214 0 -5 -11 -32 -24 -62 -14 -29 -30 -75
-37 -102 -6 -28 -16 -57 -20 -66 -7 -14 -64 -16 -556 -15 l-547 1 -24 75 -23
75 -179 143 c-99 78 -188 142 -197 142 -33 0 -48 -19 -44 -57 0 -6 45 -46 98
-90 54 -43 100 -80 103 -83 3 -3 20 -16 38 -29 18 -12 30 -27 26 -32 -3 -5 -1
-8 5 -7 15 4 69 -34 74 -52 3 -8 44 -150 91 -315 47 -165 92 -320 100 -345 7
-25 37 -129 66 -231 l53 -185 -166 -235 c-92 -129 -167 -242 -167 -251 0 -38
37 -47 194 -47 81 0 150 -2 153 -5 3 -3 14 -1 24 5 11 5 26 6 33 2 8 -4 51 -6
96 -3 45 3 84 2 87 -3 2 -4 13 -2 24 3 12 7 25 7 37 1 10 -5 24 -6 31 -1 8 4
26 4 41 0 15 -4 34 -4 43 1 10 6 18 5 22 -1 4 -6 13 -7 23 -2 9 5 26 7 37 6
43 -5 84 -5 504 -4 238 0 436 -2 439 -4 2 -3 13 -1 23 5 13 6 25 6 38 0 10 -6
21 -8 23 -5 3 2 98 4 212 4 211 1 256 7 256 39 0 9 -6 25 -14 36 -13 20 -30
20 -1100 20 -597 0 -1086 2 -1086 3 0 15 85 120 93 115 5 -3 7 -1 3 5 -3 6 7
30 24 54 43 62 112 160 131 186 9 13 27 22 45 22 30 1 181 2 244 2 19 0 40 -1
45 -2 6 -1 13 -2 17 -1 6 1 125 1 158 0 8 0 78 0 155 1 77 1 145 0 150 -1 6
-1 13 -1 17 0 4 0 38 1 75 1 37 0 77 0 88 0 174 0 164 3 219 -47 152 -136 367
-237 576 -269 79 -12 262 -10 346 3 543 85 953 565 948 1109 -2 199 -31 328
-113 499 -141 296 -412 517 -739 602 -122 32 -344 40 -462 17z m-1879 -986 c1
-60 1 -163 0 -200 -1 -11 -9 -18 -21 -18 -19 0 -32 32 -74 190 -8 30 -17 63
-21 73 -6 15 0 17 54 17 l61 0 1 -62z m360 40 c0 -13 1 -75 2 -138 l1 -115
-155 -2 -154 -2 1 137 c1 75 2 138 3 140 0 1 69 2 151 2 149 0 150 0 151 -22z
m386 -120 l-2 -141 -110 0 c-60 1 -135 1 -165 2 l-55 1 1 128 c1 70 2 133 3
140 1 9 41 12 166 12 l164 0 -2 -142z m208 125 c-4 -10 -9 -72 -11 -138 -1
-66 -3 -122 -3 -125 -1 -3 -32 -5 -71 -5 l-69 0 0 143 0 142 80 0 c73 0 80 -2
74 -17z m-953 -358 c4 -52 -7 -47 -17 8 -5 23 -3 37 3 37 5 0 12 -20 14 -45z
m257 31 c9 -6 12 -5 8 0 -3 6 15 10 44 10 56 0 51 13 51 -131 0 -47 -1 -91 -1
-98 -1 -10 -28 -13 -113 -12 -62 0 -119 5 -127 9 -9 6 -12 5 -8 -1 4 -5 -7
-10 -23 -10 -17 0 -30 3 -31 6 -1 3 -2 58 -3 122 l-1 115 95 -1 c52 0 101 -5
109 -9z m479 5 c10 -1 12 -29 10 -118 l-3 -118 -150 0 c-82 -1 -157 1 -165 3
-12 2 -15 21 -14 95 0 51 3 98 7 104 4 6 1 14 -5 16 -10 4 -10 8 -1 14 9 6
259 10 321 4z m100 -3 c26 13 103 6 113 -9 13 -20 11 -31 -3 -23 -10 6 -10 4
-2 -7 7 -8 21 -48 32 -89 11 -41 22 -82 26 -90 5 -13 -4 -15 -56 -15 -35 0
-68 4 -75 8 -6 4 -14 3 -17 -2 -4 -5 -14 -8 -24 -6 -9 2 -20 4 -24 4 -10 1
-10 225 -1 235 4 4 9 3 11 -3 2 -7 10 -8 20 -3z m-477 -313 c0 -16 2 -73 3
-125 1 -52 0 -100 -2 -106 -4 -13 -219 -17 -227 -5 -2 4 -6 18 -9 32 -3 13
-19 69 -35 124 -17 55 -31 101 -31 102 0 6 49 8 167 8 l133 0 1 -30z m343 26
l45 -1 0 -134 1 -135 -167 2 -166 2 -1 133 c-1 92 2 131 10 128 6 -2 16 -1 21
2 6 4 57 6 112 5 56 -1 121 -2 145 -2z m308 0 c10 -1 25 -18 35 -38 9 -21 34
-68 55 -104 21 -37 38 -80 38 -96 l0 -31 -170 1 -169 0 0 133 c-1 116 1 133
16 136 14 2 121 2 195 -1z"/>
<path d="M1370 2846 c0 -2 7 -7 16 -10 8 -3 12 -2 9 4 -6 10 -25 14 -25 6z"/>
<path d="M1234 1973 c-32 -6 -101 -69 -120 -109 -31 -66 -17 -154 34 -215 60
-72 209 -82 273 -18 47 47 69 94 69 147 0 137 -113 223 -256 195z"/>
<path d="M2665 1959 c-88 -48 -128 -135 -103 -227 28 -105 128 -161 246 -140
41 8 112 65 112 90 0 5 4 7 8 4 8 -5 10 2 18 84 10 109 -67 197 -182 206 -47
4 -67 0 -99 -17z"/>
<path d="M553 1271 c-57 -14 -119 -58 -138 -97 -44 -93 16 -222 90 -194 34 13
40 32 21 68 -37 72 19 162 102 162 88 0 107 -120 40 -252 -28 -54 -41 -62 -75
-45 -56 29 -142 25 -182 -9 -35 -29 -41 -75 -16 -111 25 -35 118 -48 184 -26
l43 14 53 -53 c106 -106 235 -134 235 -52 0 40 -11 54 -44 54 -38 1 -60 13
-119 66 l-46 41 28 34 c66 81 104 172 104 250 0 60 -36 113 -94 138 -41 19
-134 24 -186 12z m2 -415 c18 -13 18 -14 -3 -25 -33 -18 -62 -14 -62 8 0 30
35 40 65 17z"/>
<path d="M1338 1258 c-49 -31 -83 -75 -128 -165 -35 -73 -43 -83 -68 -84 -77
-2 -132 -23 -176 -66 -34 -34 -40 -51 -37 -98 5 -61 65 -98 148 -89 66 6 119
45 157 116 30 55 33 57 69 56 34 -1 38 -4 33 -22 -21 -85 -27 -129 -18 -138
11 -11 85 -14 101 -4 11 7 30 67 38 121 6 37 7 38 68 54 57 14 81 32 72 56 -5
13 -11 14 -27 5 -32 -17 -90 -22 -90 -7 0 6 7 44 15 82 23 108 20 142 -14 175
-35 35 -92 38 -143 8z m58 -105 c-3 -27 -13 -66 -21 -88 -8 -22 -14 -48 -15
-57 0 -14 -9 -18 -36 -18 -32 0 -35 2 -28 23 26 82 79 187 95 187 7 0 9 -16 5
-47z m-274 -270 c-28 -53 -47 -69 -67 -53 -27 22 -7 70 40 94 41 21 51 6 27
-41z"/>
<path d="M1800 1271 c-41 -13 -69 -34 -80 -61 -27 -68 -15 -116 46 -183 70
-77 84 -99 84 -131 0 -42 -19 -66 -57 -72 -41 -6 -75 34 -73 86 3 57 2 59 -37
66 -30 6 -39 3 -54 -14 -23 -29 -18 -115 9 -151 63 -86 272 -69 317 25 35 74
17 125 -84 233 -23 24 -42 51 -42 60 -4 54 12 81 47 81 26 0 35 -10 39 -46 3
-30 4 -32 35 -34 50 -4 58 -1 62 31 12 83 -104 143 -212 110z"/>
<path d="M2412 1255 c-26 -14 -53 -22 -68 -19 -52 10 -130 11 -160 3 -74 -20
-105 -95 -67 -160 28 -48 95 -60 154 -28 35 19 19 55 -26 61 -24 2 -29 7 -27
23 6 30 20 35 98 35 42 0 75 5 83 13 9 9 -42 -151 -54 -171 -1 -1 -24 -5 -51
-8 -102 -12 -172 -65 -178 -137 -6 -69 42 -110 128 -109 63 1 73 3 112 26 29
17 84 106 84 134 0 17 69 15 76 -1 2 -7 -4 -41 -15 -75 -21 -69 -15 -83 36
-84 59 -2 70 8 90 84 l19 71 58 18 c66 20 79 29 71 51 -5 13 -11 13 -51 0 -25
-8 -48 -12 -51 -8 -5 5 48 194 73 259 3 9 -1 17 -13 21 -39 12 -79 15 -91 7
-7 -4 -33 -68 -57 -142 l-44 -134 -33 3 c-17 1 -34 4 -36 7 -2 2 16 63 39 135
37 112 42 132 29 140 -26 16 -83 10 -128 -15z m-98 -352 c-8 -31 -41 -83 -53
-83 -17 0 -32 30 -26 50 9 28 45 60 67 60 15 0 17 -5 12 -27z"/>
<path d="M3093 1261 c-63 -29 -89 -97 -64 -164 5 -14 35 -53 66 -88 32 -35 61
-74 66 -86 20 -52 -32 -114 -82 -98 -27 9 -48 59 -42 101 4 28 1 35 -20 45
-42 19 -75 4 -83 -37 -21 -110 37 -176 156 -179 100 -3 172 38 191 107 16 61
0 102 -70 178 -67 73 -81 108 -57 145 28 42 70 29 78 -25 3 -22 8 -25 48 -25
43 0 45 2 48 30 4 45 -30 92 -75 104 -56 16 -113 13 -160 -8z"/>
<path d="M3447 1265 c-7 -7 -23 -46 -37 -88 -17 -57 -28 -77 -41 -77 -23 0
-36 -50 -16 -65 11 -8 12 -19 2 -63 -17 -73 -12 -157 10 -182 20 -22 60 -37
93 -34 12 1 31 2 41 3 11 0 35 16 55 34 l35 33 20 -27 c38 -51 133 -59 214
-20 23 11 56 20 74 19 34 -1 77 22 106 56 19 22 77 141 77 157 0 15 20 10 27
-7 3 -9 -8 -43 -26 -78 -36 -71 -40 -117 -11 -146 22 -22 32 -24 99 -21 43 2
103 32 130 65 18 22 26 20 38 -7 24 -52 136 -77 223 -51 47 14 105 60 133 106
14 22 14 28 3 37 -11 9 -19 5 -37 -20 -12 -17 -40 -39 -62 -49 -50 -23 -125
-20 -144 6 -20 27 -17 30 32 31 56 1 104 29 129 75 17 31 18 39 6 68 -16 40
-59 60 -121 56 -89 -5 -148 -52 -183 -147 -24 -67 -90 -118 -131 -103 -23 9
-18 35 14 87 42 66 43 84 6 121 -13 13 -34 31 -46 40 -13 8 -22 26 -23 42 -1
39 -29 53 -64 34 -25 -15 -27 -21 -27 -80 0 -63 -16 -108 -66 -187 -13 -21
-65 -50 -74 -41 -2 2 2 22 10 43 49 139 -38 226 -186 185 -51 -14 -105 -71
-126 -132 -21 -60 -59 -104 -98 -114 -34 -9 -55 15 -49 54 10 64 38 152 48
153 6 1 21 2 33 2 14 0 24 8 28 24 7 30 -1 43 -26 43 -24 0 -24 9 1 90 23 75
20 80 -48 85 -18 1 -39 -3 -45 -10z m357 -312 c-1 -37 -7 -56 -23 -72 -11 -11
-21 -27 -21 -35 0 -19 -14 -28 -34 -20 -22 8 -20 52 4 116 20 54 35 70 60 65
11 -2 15 -16 14 -54z m713 40 c4 -10 -3 -24 -21 -40 -24 -21 -56 -31 -56 -18
0 11 25 50 40 62 20 17 29 16 37 -4z"/>
</g>
</svg>
